<?xml version="1.0" encoding="UTF-8"?><svg id="b" xmlns="http://www.w3.org/2000/svg" viewBox="0 0 245.28 158.04"><defs><style>.d{fill:#231f20;}.e{fill:#da2927;}</style></defs><g id="c"><path class="d" d="M37.3,97.99l-4.56-4.51V18.7l-15.78-10.53L0,16.4v81.61l7.85,7.79,7.81-7.77.02-.02-.02-.02-4.54-4.51.36-43.26,5.27,5.23,5.25-5.22-.37,47.78,7.84,7.79,7.85-7.79-.02-.02ZM16.74,39.87l-5.27,5.23V13.63l10.52,8.07v23.4l-5.25-5.23Z"/><path class="d" d="M205.78,97.99l-4.56-4.51V18.7l-15.78-10.53-16.97,8.23v81.61l7.85,7.79,7.81-7.77.02-.02-.02-.02-4.54-4.51.36-43.26,5.27,5.23,5.25-5.22-.37,47.78,7.84,7.79,7.85-7.79-.02-.02ZM185.22,39.87l-5.27,5.23V13.63l10.52,8.07v23.4l-5.25-5.23Z"/><polygon class="d" points="94.38 17.1 94.02 93.49 98.56 97.99 98.29 98.25 90.72 105.78 82.87 97.99 82.9 97.95 83.27 20.44 89.2 15.92 75.04 20.03 75.04 8.17 102.86 8.17 102.86 20.03 94.38 17.1"/><polygon class="d" points="125.14 98.01 117.29 105.79 109.45 98.01 109.5 97.96 109.5 17.48 105.51 13.52 105.27 13.27 105.23 13.24 113.07 5.45 120.92 13.24 120.92 93.83 125.14 98.01"/><polygon class="e" points="119.45 .32 119.07 .05 119.13 0 119.45 .32"/><polygon class="d" points="139.36 33.57 163.66 49.32 163.28 93.65 144.25 103.15 127.88 94.68 128.21 49.08 123.67 44.57 131.52 36.79 139.36 44.57 138.99 86.29 152.17 96.5 152.55 46.71 128.25 30.72 128.25 17.66 147.28 8.17 161.67 13.54 161.67 24.59 166.25 29.14 158.39 36.92 150.56 29.14 150.56 20.12 139.36 14.5 139.36 33.57"/><polygon class="d" points="245.28 98 237.43 105.79 229.59 98 229.92 20.91 225.37 16.4 219.41 22.32 219.08 93.46 219.08 93.48 223.62 97.97 223.65 98 223.62 98.02 215.79 105.79 207.95 98 208.31 20.93 208.31 20.92 206.12 18.75 206.11 18.75 204.99 17.63 204.98 17.63 203.74 16.4 211.59 8.61 216.33 13.31 219.43 16.4 219.42 19.62 231.87 7.27 233.21 8.61 241.06 16.4 240.71 93.46 245.25 97.97 245.28 98"/><path class="d" d="M76.7,97.97l-4.54-4.51.36-52.46-10.67-4.35,10.67-6.49v-13.92l-16.29-8.07-10.67,6.8-7.84-7.78-7.85,7.78,7.85,7.79,2.06-2.04-.37,77.28,7.85,7.79,7.82-7.77.02-.02-.02-.02-4.54-4.51.36-50.09,10.52,4.6-.37,50.03,7.84,7.79,2.89-2.87,4.96-4.92-.02-.02ZM61.41,34.6l-10.52,6.49v-22.48l10.52-5.39v21.37Z"/><path class="d" d="M8.59,123.66l7.22-8.26c.73-.83,1.07-1.48,1.03-1.93-.02-.45-.4-1-1.14-1.66l.26-.29,5.93,5.18c1.57,1.37,2.5,2.73,2.82,4.08.31,1.36-.01,2.58-.97,3.68-.58.67-1.32,1.06-2.22,1.18s-1.78-.02-2.65-.43l-.03.04c.72.79,1.13,1.72,1.24,2.81.11,1.06-.19,1.99-.88,2.79-.97,1.11-2.16,1.62-3.57,1.52-1.41-.1-2.89-.82-4.43-2.16l-6.56-5.73.26-.29c.78.68,1.4.99,1.85.93.47-.09,1.09-.58,1.86-1.45ZM13.52,121.1l-4.76,5.44c.49.73,1.24,1.53,2.24,2.41.97.84,2.02,1.34,3.18,1.5,1.17.17,2.13-.19,2.9-1.06.63-.72.92-1.5.87-2.34-.04-1.53-.86-3-2.45-4.39-.78-.68-1.45-1.21-1.98-1.56ZM18.63,115.24l-4.48,5.13c.34.46,1.1,1.2,2.29,2.24,1.02.89,2.03,1.35,3.04,1.38s1.86-.35,2.56-1.15c.78-.89,1.04-1.88.8-2.96-.25-1.09-.94-2.14-2.09-3.14-.81-.71-1.51-1.21-2.11-1.5Z"/><path class="d" d="M31.98,138.53l.13-2.42-6.23-3.01-2.03,1.82c-.73.63-1.17,1.1-1.32,1.41-.13.38-.08.7.14.96.22.26.62.56,1.19.89l-.17.35-4.73-2.29.17-.35c.62.22,1.18.25,1.66.08.49-.17,1.13-.61,1.94-1.32l11.76-10.46.26.12-.84,15.19-.07,1.09.03.88c.05.54.16.96.35,1.24.19.28.54.61,1.06.97l-.17.35-5.76-2.78.17-.35c.59.25,1.05.35,1.38.32.32-.04.57-.23.75-.59.14-.3.25-1,.33-2.12ZM26.48,132.58l5.66,2.74.5-8.39-6.17,5.65Z"/><path class="d" d="M54.04,149.64l-.12.37-4.17-1.31-3.08-9.45-2.03-.64-1.44,4.56c-.35,1.12-.48,1.91-.36,2.37.14.43.75.81,1.82,1.15l-.12.37-6.57-2.07.12-.37c1.07.34,1.78.37,2.12.1.36-.29.72-1,1.08-2.14l3.21-10.19c.36-1.16.47-1.93.32-2.32-.13-.4-.73-.77-1.8-1.11l.12-.37,6.7,2.11c2.2.69,3.57,1.69,4.1,2.98.48,1.08.56,2.1.26,3.08-.34,1.09-.99,1.88-1.94,2.36-.95.48-2.08.66-3.39.54l1.81,5.5c.22.69.46,1.35.71,2,.21.48.55.96,1.01,1.42s1.01.82,1.64,1.07ZM47.48,130.81l-.37-.03-2.25,7.14.55.17c3.5,1.1,5.64.44,6.4-1.99.35-1.12.31-2.13-.13-3.01-.44-.88-1.21-1.5-2.32-1.85-.66-.21-1.29-.35-1.88-.43Z"/><path class="d" d="M58.75,147.76l2.31-10.73c.23-1.08.22-1.81-.03-2.19-.24-.39-.84-.69-1.8-.89l.08-.38,7.7,1.66c2.03.44,3.52,1.17,4.45,2.21.93,1.03,1.24,2.26.94,3.69-.19.86-.64,1.57-1.37,2.11-.73.54-1.57.85-2.52.91v.05c1,.34,1.81.96,2.44,1.86.61.88.8,1.83.58,2.86-.31,1.44-1.11,2.46-2.39,3.06-1.28.6-2.92.69-4.92.26l-8.52-1.83.08-.38c1.02.22,1.71.19,2.07-.09.37-.31.67-1.03.92-2.17ZM61.82,143.13l-1.52,7.07c.78.4,1.83.74,3.13,1.02,1.25.27,2.42.19,3.51-.23,1.1-.42,1.77-1.2,2.02-2.33.2-.93.08-1.76-.37-2.47-.78-1.32-2.2-2.2-4.27-2.65-1.02-.22-1.85-.35-2.49-.4ZM63.45,135.53l-1.43,6.66c.52.24,1.55.52,3.09.85,1.32.28,2.43.2,3.33-.27s1.46-1.21,1.68-2.25c.25-1.15,0-2.14-.74-2.98-.74-.83-1.86-1.41-3.35-1.73-1.05-.23-1.91-.32-2.57-.29Z"/><path class="d" d="M84.12,139.01l-4.55-.66-1.01,6.97,3.63.52c1.12.16,1.89.12,2.33-.11.44-.25.78-.9,1.02-1.95l.39.06-.84,5.79-.39-.06c.05-1.08-.1-1.8-.45-2.17-.33-.36-1.06-.62-2.17-.79l-3.63-.52-.89,6.15c-.09.62-.04,1.05.15,1.31.19.26.6.43,1.24.52l3.47.5c1.06.15,1.9.03,2.52-.37.65-.4,1.45-1.19,2.39-2.39l.39.06-2.04,3.96-12.89-1.86.06-.39c1.03.15,1.71.07,2.06-.23s.6-1.04.77-2.23l1.57-10.86c.15-1.06.1-1.79-.16-2.18-.23-.37-.86-.62-1.89-.77l.06-.39,12.76,1.84-.31,3.76-.41-.06c-.06-1.3-.29-2.16-.71-2.57-.39-.42-1.22-.73-2.47-.91Z"/><path class="d" d="M105.96,157.28l-.03.39-4.35-.36-5.09-8.53-2.12-.17-.39,4.77c-.1,1.17-.04,1.97.17,2.39.23.38.91.62,2.03.71l-.03.39-6.87-.56.03-.39c1.12.09,1.82-.03,2.09-.38.29-.36.48-1.13.58-2.33l.87-10.65c.1-1.21.03-1.99-.2-2.34-.21-.37-.88-.59-2-.69l.03-.39,7,.57c2.3.19,3.85.86,4.66,2,.71.95,1.02,1.93.93,2.95-.09,1.14-.55,2.05-1.37,2.73-.82.68-1.88,1.11-3.18,1.28l2.98,4.97c.37.62.74,1.22,1.13,1.79.31.43.75.81,1.3,1.16.55.35,1.17.58,1.83.68ZM95.4,140.37l-.37.05-.61,7.46.57.05c3.66.3,5.6-.82,5.81-3.36.1-1.17-.17-2.14-.79-2.91-.62-.76-1.52-1.19-2.67-1.29-.69-.06-1.33-.06-1.93,0Z"/><path class="d" d="M125.45,154.39l-.92-2.24-6.92-.04-1.06,2.52c-.39.88-.58,1.5-.58,1.84.05.4.23.67.54.81s.8.24,1.45.29v.39s-5.25-.03-5.25-.03v-.39c.66-.07,1.17-.28,1.54-.64.37-.36.76-1.04,1.18-2.02l6.12-14.5h.29s5.76,14.08,5.76,14.08l.41,1.02.41.78c.27.47.56.79.85.97.29.17.75.32,1.38.42v.39s-6.4-.04-6.4-.04v-.39c.64-.03,1.1-.13,1.38-.3.28-.17.42-.46.42-.86,0-.33-.2-1.02-.61-2.06ZM117.93,151.38l6.29.04-3.15-7.79-3.14,7.75Z"/><path class="d" d="M144.28,139.67l.36-.02.69,5.82-.31.02c-.5-1.59-1.25-2.8-2.25-3.63-1.01-.83-2.26-1.21-3.77-1.14-1.8.09-3.25.91-4.35,2.46-1.08,1.53-1.56,3.65-1.42,6.37.14,2.74.96,4.69,2.46,5.86,1.36,1.06,2.86,1.55,4.5,1.46,1.25-.06,2.31-.4,3.18-1.02s1.71-1.59,2.51-2.91l.32.22c-.75,1.55-1.68,2.71-2.78,3.49s-2.47,1.21-4.11,1.29c-2.44.12-4.46-.6-6.05-2.17-1.57-1.57-2.42-3.59-2.55-6.07-.13-2.6.55-4.83,2.05-6.72,1.52-1.88,3.57-2.89,6.15-3.02.64-.03,1.31.03,2,.2.69.17,1.27.33,1.72.51.45.18.7.26.75.26.55-.03.85-.45.9-1.27Z"/><path class="d" d="M159.55,152.17l-1.18-2.12-6.87.76-.76,2.62c-.28.92-.4,1.55-.37,1.9.1.39.31.64.63.74.33.1.82.14,1.48.12l.04.39-5.22.58-.04-.39c.65-.14,1.13-.41,1.45-.81.32-.4.64-1.12.94-2.14l4.4-15.11.28-.03,7.36,13.31.52.96.5.73c.33.43.65.72.96.86.31.14.78.23,1.42.26l.04.39-6.36.7-.04-.39c.63-.1,1.08-.26,1.33-.46.26-.2.36-.5.32-.9-.04-.33-.32-.99-.85-1.97ZM151.73,150.05l6.25-.69-4.03-7.38-2.22,8.07Z"/><path class="d" d="M169.08,151.26l-2.02-10.78c-.2-1.06-.48-1.73-.85-2.01-.33-.27-1.01-.31-2.03-.12l-.07-.38,6.85-1.28c3.17-.59,5.72-.35,7.65.72,1.93,1.08,3.16,3.02,3.69,5.83.45,2.42.05,4.6-1.21,6.55-1.26,1.91-3.31,3.13-6.14,3.66l-7.67,1.44-.07-.38c1.02-.19,1.65-.48,1.87-.88.23-.39.23-1.18,0-2.36ZM168.71,138.26l2.75,14.67c.93.06,1.9-.01,2.92-.2,2.08-.39,3.61-1.4,4.59-3.03s1.26-3.6.82-5.92c-.46-2.47-1.46-4.24-2.98-5.31-1.49-1.1-3.29-1.45-5.38-1.05-1.12.21-2.03.5-2.72.85Z"/><path class="d" d="M190.41,133.02l-4.44,1.21,1.85,6.8,3.54-.96c1.09-.3,1.78-.64,2.09-1.03.3-.41.35-1.14.16-2.2l.38-.1,1.54,5.64-.38.1c-.38-1.01-.81-1.61-1.27-1.81-.45-.2-1.22-.15-2.31.14l-3.54.96,1.64,6c.16.6.38.98.66,1.14.28.16.72.15,1.34-.02l3.39-.92c1.04-.28,1.76-.73,2.17-1.35.44-.62.86-1.67,1.25-3.14l.38-.1-.3,4.45-12.57,3.43-.1-.38c1-.27,1.6-.62,1.79-1.03.19-.41.13-1.19-.18-2.35l-2.89-10.58c-.28-1.04-.62-1.68-1.01-1.93-.35-.25-1.03-.23-2.04.04l-.1-.38,12.44-3.39,1.22,3.58-.4.11c-.57-1.17-1.13-1.87-1.67-2.08-.53-.23-1.41-.18-2.63.15Z"/><path class="d" d="M212.29,142.83l-.26.11-11.82-10.81-.05.02,4.41,10.44c.48,1.13.91,1.8,1.29,1.99.38.2,1.07.08,2.06-.33l.15.36-5.37,2.26-.15-.36c.96-.4,1.5-.82,1.64-1.26.14-.43-.03-1.2-.49-2.3l-4.2-9.94c-.42-1.01-.85-1.63-1.28-1.89-.4-.24-1.09-.16-2.07.25l-.15-.36,4.1-1.73,11.37,10.5.48-15.5,4.17-1.76.15.36c-.94.4-1.49.83-1.63,1.28-.14.43.02,1.19.48,2.28l4.19,9.92c.46,1.09.9,1.74,1.33,1.95.42.2,1.1.1,2.02-.29l.15.36-6.37,2.69-.15-.36c.96-.4,1.5-.82,1.64-1.26.14-.43-.03-1.2-.49-2.3l-4.59-10.87-.05.02-.53,16.54Z"/><path class="d" d="M222.03,121.54l6.99,2.3-.8-6.37c-.13-1.08-.35-1.8-.65-2.16-.51-.61-1.22-.54-2.14.23l-.25-.3,4.5-3.74.25.3c-.57.48-.93,1.04-1.08,1.69-.15.65-.15,1.49-.03,2.51l1.08,8.17,2.73,3.28c.73.88,1.31,1.36,1.73,1.43.43.05,1.05-.26,1.86-.94l.25.3-5.32,4.42-.25-.3c.76-.63,1.15-1.17,1.18-1.63.04-.46-.3-1.13-1.02-1.99l-2.56-3.08-9.41-2.89c-1.14-.34-2.09-.2-2.86.42l-.25-.3,5.36-4.46.25.3c-.52.43-.86.81-1.02,1.13-.16.32-.11.64.14.95.21.25.65.5,1.32.73Z"/></g></svg>